<svg width="9" height="8" viewBox="0 0 9 8" fill="none" xmlns="http://www.w3.org/2000/svg">
<path d="M7.81822 1.61611H6.8793C6.86675 1.612 6.85369 1.60933 6.84046 1.6081H5.84076V0.824654C5.84082 0.765777 5.81639 0.709252 5.77285 0.667202C5.72926 0.625155 5.67001 0.600899 5.60776 0.59967H3.24349C3.18033 0.59967 3.11978 0.623339 3.07517 0.665545C3.0305 0.707752 3.00539 0.764972 3.00539 0.824652V1.6081H2.01078C1.99755 1.60932 1.98449 1.612 1.97193 1.61611H1.03302C0.947921 1.61611 0.869323 1.65896 0.826811 1.72857C0.784292 1.79819 0.784292 1.88393 0.826811 1.95355C0.86933 2.02316 0.947922 2.06607 1.03302 2.06607H1.79796L2.41607 7.49933C2.42269 7.55463 2.45062 7.60565 2.49455 7.64278C2.53842 7.67986 2.59525 7.70032 2.65416 7.70037H6.20042C6.25871 7.69957 6.31469 7.67868 6.35794 7.64171C6.40114 7.60469 6.42856 7.55409 6.43512 7.49933L7.05317 2.074H7.81818C7.90327 2.074 7.98187 2.03115 8.02438 1.96153C8.06689 1.89192 8.0669 1.80612 8.02438 1.73656C7.98186 1.66694 7.90327 1.62404 7.81818 1.62404L7.81822 1.61611ZM3.48672 1.04963H5.3645V1.6081H3.48672V1.04963ZM5.9843 7.24718H2.86692L2.2759 2.07405H6.57526L5.9843 7.24718Z" fill="#E41D1D"/>
<path d="M4.42559 6.72065C4.48875 6.72065 4.5493 6.69693 4.59397 6.65477C4.63864 6.61257 4.66369 6.55535 4.66369 6.49567V2.82566C4.66369 2.74526 4.61834 2.67099 4.54467 2.63082C4.471 2.59059 4.3802 2.59059 4.30652 2.63082C4.23285 2.671 4.1875 2.74526 4.1875 2.82566V6.49567C4.1875 6.55535 4.21255 6.61257 4.25722 6.65477C4.30188 6.69693 4.36244 6.72065 4.4256 6.72065H4.42559Z" fill="#E41D1D"/>
<path d="M3.48922 6.71898H3.49934C3.56222 6.71652 3.62147 6.69061 3.66422 6.64696C3.70691 6.60331 3.72964 6.54545 3.72732 6.48603L3.58376 2.81603L3.58382 2.81598C3.58252 2.75587 3.55532 2.69881 3.50845 2.6581C3.46152 2.61744 3.3991 2.59666 3.33555 2.60056C3.27268 2.60307 3.21343 2.62898 3.17073 2.67263C3.12799 2.71628 3.10532 2.77415 3.10758 2.83356L3.25113 6.50356C3.25413 6.56142 3.28048 6.61603 3.32481 6.65609C3.36908 6.69611 3.42794 6.71865 3.48922 6.71898L3.48922 6.71898Z" fill="#E41D1D"/>
<path d="M5.35498 6.71901H5.3634C5.42616 6.72034 5.48695 6.69833 5.53274 6.65778C5.57848 6.61717 5.60562 6.56124 5.60828 6.50198L5.75184 2.83198H5.75178C5.7541 2.77257 5.73137 2.71471 5.68868 2.67105C5.64594 2.6274 5.58668 2.60149 5.5238 2.59898C5.45952 2.59273 5.3954 2.61234 5.34717 2.65305C5.29894 2.69371 5.27112 2.75173 5.2705 2.81285L5.12525 6.48286H5.1253C5.12208 6.54307 5.14458 6.602 5.18778 6.64639C5.23092 6.69079 5.2912 6.71697 5.35498 6.719L5.35498 6.71901Z" fill="#E41D1D"/>
</svg>
