<svg width="16" height="15" viewBox="0 0 16 15" fill="none" xmlns="http://www.w3.org/2000/svg">
<ellipse cx="7.55175" cy="7.15002" rx="7.51465" ry="7.1007" fill="#FFF3F3"/>
<path d="M10.8182 4.61611H9.8793C9.86675 4.612 9.85369 4.60933 9.84046 4.6081H8.84076V3.82465C8.84082 3.76578 8.81639 3.70925 8.77285 3.6672C8.72926 3.62516 8.67001 3.6009 8.60776 3.59967H6.24349C6.18033 3.59967 6.11978 3.62334 6.07517 3.66555C6.0305 3.70775 6.00539 3.76497 6.00539 3.82465V4.6081H5.01078C4.99755 4.60932 4.98449 4.612 4.97193 4.61611H4.03302C3.94792 4.61611 3.86932 4.65896 3.82681 4.72857C3.78429 4.79819 3.78429 4.88393 3.82681 4.95355C3.86933 5.02316 3.94792 5.06607 4.03302 5.06607H4.79796L5.41607 10.4993C5.42269 10.5546 5.45062 10.6057 5.49455 10.6428C5.53842 10.6799 5.59525 10.7003 5.65416 10.7004H9.20042C9.25871 10.6996 9.31469 10.6787 9.35794 10.6417C9.40114 10.6047 9.42856 10.5541 9.43512 10.4993L10.0532 5.074H10.8182C10.9033 5.074 10.9819 5.03115 11.0244 4.96153C11.0669 4.89192 11.0669 4.80612 11.0244 4.73656C10.9819 4.66694 10.9033 4.62404 10.8182 4.62404L10.8182 4.61611ZM6.48672 4.04963H8.3645V4.6081H6.48672V4.04963ZM8.9843 10.2472H5.86692L5.2759 5.07405H9.57526L8.9843 10.2472Z" fill="#E41D1D"/>
<path d="M7.42559 9.72065C7.48875 9.72065 7.5493 9.69693 7.59397 9.65477C7.63864 9.61257 7.66369 9.55535 7.66369 9.49567V5.82566C7.66369 5.74526 7.61834 5.67099 7.54467 5.63082C7.471 5.59059 7.3802 5.59059 7.30652 5.63082C7.23285 5.671 7.1875 5.74526 7.1875 5.82566V9.49567C7.1875 9.55535 7.21255 9.61257 7.25722 9.65477C7.30188 9.69693 7.36244 9.72065 7.4256 9.72065H7.42559Z" fill="#E41D1D"/>
<path d="M6.48922 9.71898H6.49934C6.56222 9.71652 6.62147 9.69061 6.66422 9.64696C6.70691 9.60331 6.72964 9.54545 6.72732 9.48603L6.58376 5.81603L6.58382 5.81598C6.58252 5.75587 6.55532 5.69881 6.50845 5.6581C6.46152 5.61744 6.3991 5.59666 6.33555 5.60056C6.27268 5.60307 6.21343 5.62898 6.17073 5.67263C6.12799 5.71628 6.10532 5.77415 6.10758 5.83356L6.25113 9.50356C6.25413 9.56142 6.28048 9.61603 6.32481 9.65609C6.36908 9.69611 6.42794 9.71865 6.48922 9.71898L6.48922 9.71898Z" fill="#E41D1D"/>
<path d="M8.35498 9.71901H8.3634C8.42616 9.72034 8.48695 9.69833 8.53274 9.65778C8.57848 9.61717 8.60562 9.56124 8.60828 9.50198L8.75184 5.83198H8.75178C8.7541 5.77257 8.73137 5.71471 8.68868 5.67105C8.64594 5.6274 8.58668 5.60149 8.5238 5.59898C8.45952 5.59273 8.3954 5.61234 8.34717 5.65305C8.29894 5.69371 8.27112 5.75173 8.2705 5.81285L8.12525 9.48286H8.1253C8.12208 9.54307 8.14458 9.602 8.18778 9.64639C8.23092 9.69079 8.2912 9.71697 8.35498 9.719L8.35498 9.71901Z" fill="#E41D1D"/>
</svg>
