<svg width="11" height="11" viewBox="0 0 11 11" fill="none" xmlns="http://www.w3.org/2000/svg">
<g clip-path="url(#clip0_402_6104)">
<path d="M0.88 0.880066C0.396172 0.880066 0 1.27624 0 1.76007C0 2.24389 0.396172 2.64007 0.88 2.64007C1.36383 2.64007 1.76 2.24389 1.76 1.76007C1.76 1.27624 1.36383 0.880066 0.88 0.880066ZM2.64 1.32007V2.20007H11V1.32007H2.64ZM0.88 4.62007C0.396172 4.62007 0 5.01624 0 5.50007C0 5.98389 0.396172 6.38006 0.88 6.38006C1.36383 6.38006 1.76 5.98389 1.76 5.50007C1.76 5.01624 1.36383 4.62007 0.88 4.62007ZM2.64 5.06007V5.94007H11V5.06007H2.64ZM0.88 8.36006C0.396172 8.36006 0 8.75624 0 9.24006C0 9.72389 0.396172 10.1201 0.88 10.1201C1.36383 10.1201 1.76 9.72389 1.76 9.24006C1.76 8.75624 1.36383 8.36006 0.88 8.36006ZM2.64 8.80007V9.68007H11V8.80007H2.64Z" fill="black"/>
</g>
<defs>
<clipPath id="clip0_402_6104">
<rect width="11" height="11" fill="white"/>
</clipPath>
</defs>
</svg>
