<svg width="121" height="27" viewBox="0 0 121 27" fill="none" xmlns="http://www.w3.org/2000/svg">
<path d="M42.4716 7.36364V19H40.0114V7.36364H42.4716ZM46.8707 13.9545V19H44.4503V10.2727H46.7571V11.8125H46.8594C47.0526 11.3049 47.3764 10.9034 47.831 10.608C48.2855 10.3087 48.8366 10.1591 49.4844 10.1591C50.0904 10.1591 50.6188 10.2917 51.0696 10.5568C51.5204 10.822 51.8707 11.2008 52.1207 11.6932C52.3707 12.1818 52.4957 12.7652 52.4957 13.4432V19H50.0753V13.875C50.0791 13.3409 49.9427 12.9242 49.6662 12.625C49.3897 12.322 49.009 12.1705 48.5241 12.1705C48.1984 12.1705 47.9105 12.2405 47.6605 12.3807C47.4143 12.5208 47.2211 12.7254 47.081 12.9943C46.9446 13.2595 46.8745 13.5795 46.8707 13.9545ZM59.0966 10.2727V12.0909H53.7102V10.2727H59.0966ZM54.9432 19V9.64205C54.9432 9.00947 55.0663 8.48485 55.3125 8.06818C55.5625 7.65151 55.9034 7.33901 56.3352 7.13068C56.767 6.92235 57.2576 6.81818 57.8068 6.81818C58.178 6.81818 58.517 6.84659 58.8239 6.90341C59.1345 6.96023 59.3655 7.01136 59.517 7.05682L59.0852 8.875C58.9905 8.8447 58.8731 8.81629 58.733 8.78977C58.5966 8.76326 58.4564 8.75 58.3125 8.75C57.9564 8.75 57.7083 8.83333 57.5682 9C57.428 9.16288 57.358 9.39205 57.358 9.6875V19H54.9432ZM60.5753 19V10.2727H62.9219V11.7955H63.0128C63.1719 11.2538 63.4389 10.8447 63.8139 10.5682C64.1889 10.2879 64.6207 10.1477 65.1094 10.1477C65.2306 10.1477 65.3613 10.1553 65.5014 10.1705C65.6416 10.1856 65.7647 10.2064 65.8707 10.233V12.3807C65.7571 12.3466 65.5999 12.3163 65.3991 12.2898C65.1984 12.2633 65.0147 12.25 64.848 12.25C64.492 12.25 64.1738 12.3277 63.8935 12.483C63.617 12.6345 63.3973 12.8466 63.2344 13.1193C63.0753 13.392 62.9957 13.7064 62.9957 14.0625V19H60.5753ZM68.5327 19H65.8963L69.9134 7.36364H73.0838L77.0952 19H74.4588L71.544 10.0227H71.4531L68.5327 19ZM68.3679 14.4261H74.5952V16.3466H68.3679V14.4261ZM80.956 7.36364V19H78.4957V7.36364H80.956ZM96.9503 11.4375H94.4616C94.4162 11.1155 94.3234 10.8295 94.1832 10.5795C94.0431 10.3258 93.8632 10.1098 93.6435 9.93182C93.4238 9.75379 93.17 9.61742 92.8821 9.52273C92.598 9.42803 92.2893 9.38068 91.956 9.38068C91.3537 9.38068 90.8291 9.5303 90.3821 9.82955C89.9351 10.125 89.5885 10.5568 89.3423 11.125C89.0961 11.6894 88.973 12.375 88.973 13.1818C88.973 14.0114 89.0961 14.7083 89.3423 15.2727C89.5923 15.8371 89.9408 16.2633 90.3878 16.5511C90.8348 16.839 91.3518 16.983 91.9389 16.983C92.2685 16.983 92.5734 16.9394 92.8537 16.8523C93.1378 16.7652 93.3897 16.6383 93.6094 16.4716C93.8291 16.3011 94.0109 16.0947 94.1548 15.8523C94.3026 15.6098 94.4048 15.3333 94.4616 15.0227L96.9503 15.0341C96.8859 15.5682 96.7249 16.0833 96.4673 16.5795C96.2135 17.072 95.8707 17.5133 95.4389 17.9034C95.0109 18.2898 94.4995 18.5966 93.9048 18.8239C93.3139 19.0473 92.6454 19.1591 91.8991 19.1591C90.8613 19.1591 89.9332 18.9242 89.1151 18.4545C88.3007 17.9848 87.6567 17.3049 87.1832 16.4148C86.7135 15.5246 86.4787 14.447 86.4787 13.1818C86.4787 11.9129 86.7173 10.8333 87.1946 9.94318C87.6719 9.05303 88.3196 8.375 89.1378 7.90909C89.956 7.43939 90.8764 7.20455 91.8991 7.20455C92.5734 7.20455 93.1984 7.29924 93.7741 7.48864C94.3537 7.67803 94.867 7.95455 95.3139 8.31818C95.7609 8.67803 96.1245 9.11932 96.4048 9.64205C96.6889 10.1648 96.8707 10.7633 96.9503 11.4375ZM98.669 19V10.2727H101.089V19H98.669ZM99.8849 9.14773C99.5251 9.14773 99.2164 9.02841 98.9588 8.78977C98.705 8.54735 98.5781 8.25758 98.5781 7.92045C98.5781 7.58712 98.705 7.30114 98.9588 7.0625C99.2164 6.82008 99.5251 6.69886 99.8849 6.69886C100.245 6.69886 100.552 6.82008 100.805 7.0625C101.063 7.30114 101.192 7.58712 101.192 7.92045C101.192 8.25758 101.063 8.54735 100.805 8.78977C100.552 9.02841 100.245 9.14773 99.8849 9.14773ZM111.165 10.2727L108.114 19H105.386L102.335 10.2727H104.892L106.705 16.517H106.795L108.602 10.2727H111.165ZM112.403 19V10.2727H114.824V19H112.403ZM113.619 9.14773C113.259 9.14773 112.951 9.02841 112.693 8.78977C112.439 8.54735 112.312 8.25758 112.312 7.92045C112.312 7.58712 112.439 7.30114 112.693 7.0625C112.951 6.82008 113.259 6.69886 113.619 6.69886C113.979 6.69886 114.286 6.82008 114.54 7.0625C114.797 7.30114 114.926 7.58712 114.926 7.92045C114.926 8.25758 114.797 8.54735 114.54 8.78977C114.286 9.02841 113.979 9.14773 113.619 9.14773ZM119.183 7.36364V19H116.763V7.36364H119.183Z" fill="white"/>
<path d="M0 0.046875H25.9987V26.0721L0 0.046875Z" fill="#2BE58C"/>
<path d="M0 0.046875V26.0721L13.0401 13.0187L0 0.046875Z" fill="#8C8C8C"/>
<path d="M0 26.0734H25.9987L13.0401 13.02L0 26.0734Z" fill="#03C5D1"/>
<path d="M3.17969 3.22998L22.8214 22.8916V3.22998H3.17969Z" fill="#84FFC4"/>
<path d="M3.17969 3.22998V22.8916L13.0413 13.02L3.17969 3.22998Z" fill="#BABABA"/>
<path d="M13.0393 13.02L3.17773 22.8916H22.8194L13.0393 13.02Z" fill="#66E9F2"/>
<path d="M2.28202 0.046875H0V2.24963L10.7581 13.0187L0 23.7877V26.0721H2.28202L13.0401 15.303L23.7982 26.0721H25.9987V23.7877L2.28202 0.046875Z" fill="#222222"/>
<path d="M21.2728 4.78007V21.26H4.8097V4.78007H21.2728ZM22.8214 3.22998H3.17969V22.8916H22.8214V3.22998Z" fill="white"/>
<path d="M3.17853 3.22864H5.46055L2.28202 0.046875H0V2.24963L3.17853 5.51298V3.22864Z" fill="#555555"/>
<path d="M22.8216 20.6069V22.8913H20.6211L23.7996 26.073H26.0001V23.7887L22.8216 20.6069Z" fill="#555555"/>
<path d="M3.17853 22.8913V20.6069L0 23.7887V26.073H2.28202L5.46055 22.8913H3.17853Z" fill="#555555"/>
</svg>
