<svg width="18" height="17" viewBox="0 0 18 17" fill="none" xmlns="http://www.w3.org/2000/svg">
<path d="M16.6088 14.5859L15.6957 15.499V6.27605L16.6088 7.18915C16.6861 7.26646 16.7885 7.30616 16.8908 7.30616C16.9932 7.30616 17.0935 7.26646 17.1729 7.18915C17.3275 7.03453 17.3275 6.78171 17.1729 6.62708L15.5808 5.03491C15.4261 4.88029 15.1733 4.88029 15.0187 5.03491L13.4265 6.62708C13.2719 6.78171 13.2719 7.03453 13.4265 7.18915C13.5811 7.34377 13.834 7.34377 13.9886 7.18915L14.9017 6.27605V15.499L13.9886 14.5859C13.834 14.4312 13.5811 14.4312 13.4265 14.5859C13.2719 14.7405 13.2719 14.9933 13.4265 15.1479L15.0187 16.7401C15.096 16.8174 15.1984 16.8571 15.3008 16.8571C15.4031 16.8571 15.5034 16.8174 15.5828 16.7401L17.175 15.1479C17.3296 14.9933 17.3296 14.7405 17.175 14.5859C17.0204 14.4312 16.7676 14.4312 16.6129 14.5859H16.6088Z" fill="white"/>
<path d="M10.8014 0.258544C10.6468 0.103923 10.3939 0.103923 10.2393 0.258544C10.0847 0.413164 10.0847 0.665989 10.2393 0.82061L11.1524 1.73371H1.92742L2.84052 0.82061C2.99514 0.665989 2.99514 0.413164 2.84052 0.258544C2.6859 0.103923 2.43307 0.103923 2.27845 0.258544L0.686278 1.85072C0.531657 2.00534 0.531657 2.25816 0.686278 2.41278L2.27845 4.00496C2.35576 4.08227 2.45815 4.12197 2.56053 4.12197C2.66291 4.12197 2.76321 4.08227 2.84261 4.00496C2.99723 3.85034 2.99723 3.59751 2.84261 3.44289L1.92951 2.52979H11.1503L10.2372 3.44289C10.0826 3.59751 10.0826 3.85034 10.2372 4.00496C10.3145 4.08227 10.4169 4.12197 10.5193 4.12197C10.6217 4.12197 10.722 4.08227 10.8014 4.00496L12.3936 2.41278C12.5482 2.25816 12.5482 2.00534 12.3936 1.85072L10.8014 0.258544Z" fill="white"/>
<path d="M12.1125 4.91797H0.967311C0.747917 4.91797 0.570312 5.09557 0.570312 5.31497V16.4581C0.570312 16.6775 0.747917 16.8551 0.967311 16.8551H12.1104C12.3298 16.8551 12.5074 16.6775 12.5074 16.4581V5.31497C12.5074 5.09557 12.3298 4.91797 12.1104 4.91797H12.1125ZM11.7155 16.0611H1.3664V5.71405H11.7134V16.0611H11.7155Z" fill="white"/>
</svg>
