<svg width="14" height="15" viewBox="0 0 14 15" fill="none" xmlns="http://www.w3.org/2000/svg">
<path d="M6.6 14.2446H2.59999C1.71634 14.2446 0.999994 13.5276 1 12.643L1.00006 3.03326C1.00007 2.14871 1.71641 1.43164 2.60006 1.43164H9.80024C10.6839 1.43164 11.4002 2.14871 11.4002 3.03327V6.23653M12.2 13.0435L13 13.8443M3.80025 4.6349H8.60025M3.80025 7.03734H8.60025M3.80025 9.43979H6.20025M12.6 11.4418C12.6 12.5475 11.7046 13.4439 10.6 13.4439C9.49543 13.4439 8.6 12.5475 8.6 11.4418C8.6 10.3361 9.49543 9.43979 10.6 9.43979C11.7046 9.43979 12.6 10.3361 12.6 11.4418Z" stroke="white" stroke-width="1.33333" stroke-linecap="round" stroke-linejoin="round"/>
</svg>
