<svg width="14" height="15" viewBox="0 0 14 15" fill="none" xmlns="http://www.w3.org/2000/svg">
<path d="M3.14581 13.314H8.03928C8.2063 13.8457 8.55795 14.2999 9.03056 14.5944C9.50317 14.889 10.0655 15.0044 10.6158 14.9198C11.1661 14.8353 11.6679 14.5563 12.0305 14.1334C12.3931 13.7104 12.5924 13.1716 12.5924 12.6143C12.5924 12.057 12.3931 11.5181 12.0305 11.0952C11.6679 10.6723 11.1661 10.3933 10.6158 10.3087C10.0655 10.2241 9.50317 10.3395 9.03056 10.6341C8.55795 10.9287 8.2063 11.3829 8.03928 11.9145H3.14581C2.68229 11.9145 2.23777 11.7302 1.91002 11.4021C1.58226 11.074 1.39814 10.629 1.39814 10.165C1.39814 9.70105 1.58226 9.25607 1.91002 8.92799C2.23777 8.5999 2.68229 8.41558 3.14581 8.41558H4.77696C4.92565 8.8892 5.22141 9.30297 5.62123 9.59672C6.02104 9.89046 6.50405 10.0489 7 10.0489C7.49595 10.0489 7.97896 9.89046 8.37877 9.59672C8.77859 9.30297 9.07435 8.8892 9.22304 8.41558H10.8542C11.6885 8.41558 12.4887 8.08381 13.0786 7.49326C13.6686 6.90271 14 6.10174 14 5.26658C14 4.43141 13.6686 3.63044 13.0786 3.03989C12.4887 2.44934 11.6885 2.11757 10.8542 2.11757H5.96072C5.7937 1.58594 5.44205 1.13174 4.96944 0.837182C4.49683 0.542628 3.93448 0.427189 3.38419 0.511763C2.83391 0.596338 2.33206 0.875335 1.96949 1.29825C1.60692 1.72117 1.4076 2.26005 1.4076 2.81735C1.4076 3.37464 1.60692 3.91353 1.96949 4.33644C2.33206 4.75936 2.83391 5.03835 3.38419 5.12293C3.93448 5.2075 4.49683 5.09206 4.96944 4.79751C5.44205 4.50296 5.7937 4.04875 5.96072 3.51713H10.8542C11.3177 3.51713 11.7622 3.70144 12.09 4.02953C12.4177 4.35761 12.6019 4.80259 12.6019 5.26658C12.6019 5.73056 12.4177 6.17554 12.09 6.50362C11.7622 6.83171 11.3177 7.01602 10.8542 7.01602H9.22304C9.07435 6.54241 8.77859 6.12864 8.37877 5.83489C7.97896 5.54115 7.49595 5.38275 7 5.38275C6.50405 5.38275 6.02104 5.54115 5.62123 5.83489C5.22141 6.12864 4.92565 6.54241 4.77696 7.01602H3.14581C2.31149 7.01602 1.51134 7.34779 0.921385 7.93835C0.331432 8.5289 0 9.32986 0 10.165C0 11.0002 0.331432 11.8012 0.921385 12.3917C1.51134 12.9823 2.31149 13.314 3.14581 13.314ZM10.253 11.6812C10.4373 11.6812 10.6176 11.7359 10.7708 11.8385C10.9241 11.941 11.0436 12.0867 11.1141 12.2572C11.1847 12.4277 11.2031 12.6153 11.1672 12.7963C11.1312 12.9773 11.0424 13.1435 10.9121 13.274C10.7817 13.4045 10.6156 13.4934 10.4348 13.5294C10.254 13.5654 10.0666 13.5469 9.8963 13.4763C9.72598 13.4057 9.58041 13.2861 9.47799 13.1326C9.37557 12.9792 9.32091 12.7988 9.32091 12.6143C9.32091 12.3668 9.41911 12.1295 9.59391 11.9545C9.76871 11.7795 10.0058 11.6812 10.253 11.6812ZM3.72836 3.75039C3.54401 3.75039 3.3638 3.69566 3.21052 3.59314C3.05724 3.49062 2.93777 3.3449 2.86722 3.1744C2.79667 3.00391 2.77822 2.81631 2.81418 2.63532C2.85015 2.45433 2.93892 2.28808 3.06927 2.15759C3.19963 2.0271 3.36571 1.93824 3.54652 1.90223C3.72733 1.86623 3.91474 1.88471 4.08506 1.95533C4.25538 2.02595 4.40095 2.14554 4.50337 2.29898C4.60579 2.45241 4.66045 2.63281 4.66045 2.81735C4.66045 3.0648 4.56225 3.30213 4.38745 3.4771C4.21265 3.65208 3.97557 3.75039 3.72836 3.75039ZM6.99068 6.78276C7.17503 6.78276 7.35524 6.83749 7.50852 6.94001C7.6618 7.04253 7.78127 7.18825 7.85182 7.35875C7.92237 7.52924 7.94082 7.71684 7.90486 7.89783C7.86889 8.07882 7.78012 8.24508 7.64977 8.37556C7.51941 8.50605 7.35333 8.59491 7.17252 8.63092C6.99171 8.66692 6.8043 8.64844 6.63398 8.57782C6.46367 8.5072 6.31809 8.38761 6.21567 8.23417C6.11325 8.08074 6.05859 7.90034 6.05859 7.7158C6.05859 7.46835 6.15679 7.23102 6.33159 7.05605C6.50639 6.88107 6.74347 6.78276 6.99068 6.78276Z" fill="white"/>
</svg>
