<svg width="50" height="25" viewBox="0 0 50 25" fill="none" xmlns="http://www.w3.org/2000/svg">
<rect width="50" height="25" rx="5" fill="#1B1F41" fill-opacity="0.05"/>
<rect x="25" y="2" width="23" height="21" rx="5" fill="#1B1F41"/>
<g clip-path="url(#clip0_538_29)">
<path d="M7.88 7.88013C7.39617 7.88013 7 8.2763 7 8.76013C7 9.24395 7.39617 9.64013 7.88 9.64013C8.36383 9.64013 8.76 9.24395 8.76 8.76013C8.76 8.2763 8.36383 7.88013 7.88 7.88013ZM9.64 8.32013V9.20013H18V8.32013H9.64ZM7.88 11.6201C7.39617 11.6201 7 12.0163 7 12.5001C7 12.984 7.39617 13.3801 7.88 13.3801C8.36383 13.3801 8.76 12.984 8.76 12.5001C8.76 12.0163 8.36383 11.6201 7.88 11.6201ZM9.64 12.0601V12.9401H18V12.0601H9.64ZM7.88 15.3601C7.39617 15.3601 7 15.7563 7 16.2401C7 16.724 7.39617 17.1201 7.88 17.1201C8.36383 17.1201 8.76 16.724 8.76 16.2401C8.76 15.7563 8.36383 15.3601 7.88 15.3601ZM9.64 15.8001V16.6801H18V15.8001H9.64Z" fill="black"/>
</g>
<path d="M31.2619 7C31.1179 7 31 7.11786 31 7.2619V12.2381H36.2381V7H31.2619ZM36.7619 7V12.2381H42V7.2619C42 7.11786 41.8821 7 41.7381 7H36.7619ZM31 12.7619V17.7381C31 17.8821 31.1179 18 31.2619 18H36.2381V12.7619H31ZM36.7619 12.7619V18H41.7381C41.8821 18 42 17.8821 42 17.7381V12.7619H36.7619Z" fill="white"/>
<defs>
<clipPath id="clip0_538_29">
<rect width="11" height="11" fill="white" transform="translate(7 7)"/>
</clipPath>
</defs>
</svg>
