<svg width="14" height="14" viewBox="0 0 14 14" fill="none" xmlns="http://www.w3.org/2000/svg">
<path fill-rule="evenodd" clip-rule="evenodd" d="M13.5585 2.83705C14.0282 3.30409 14.0303 4.06346 13.5633 4.53314L4.97669 13.1683C4.75159 13.3947 4.44551 13.5219 4.12626 13.5219C3.807 13.5219 3.50093 13.3947 3.27582 13.1683L0.348887 10.2248C-0.118157 9.75511 -0.116016 8.99575 0.353668 8.5287C0.823352 8.06166 1.58272 8.0638 2.04976 8.53348L4.12626 10.6217L11.8624 2.84183C12.3294 2.37214 13.0888 2.37 13.5585 2.83705Z" fill="url(#paint0_linear_402_5927)"/>
<path fill-rule="evenodd" clip-rule="evenodd" d="M13.9074 4.05865C14.0886 3.62247 14.0011 3.10121 13.6454 2.74757C13.1757 2.28053 12.4164 2.28267 11.9493 2.75235L10.6504 4.05865L11.1559 4.05865V4.05825H11.2274V4.05865L12.0351 4.05865V4.05825H12.1066V4.05865H12.9151V4.05825H12.9866V4.05865L13.7968 4.05865V4.05825H13.8684V4.05865H13.9074ZM13.8749 4.13019H13.8684V4.14321C13.8706 4.13888 13.8727 4.13454 13.8749 4.13019ZM5.87561 12.2622L5.27798 12.8632H5.06461V12.0539H5.87561V12.2622ZM6.08276 12.0539L5.94715 12.1903V12.0539H6.08276ZM6.75482 11.378L6.1539 11.9823H5.94715V11.1747H6.75482V11.378ZM6.95703 11.1747L6.82636 11.3061V11.1747H6.95703ZM7.63486 10.493L7.02816 11.1031H6.82636V10.2905H7.63486V10.493ZM7.83625 10.2905L7.7064 10.4211V10.2905H7.83625ZM8.51407 9.60883L7.90739 10.2189H7.7064V9.4121H8.51407V9.60883ZM8.70969 9.4121L8.58561 9.53688V9.4121H8.70969ZM9.39411 8.72381L8.78083 9.34056H8.58561V8.53122H9.39411V8.72381ZM9.58561 8.53122L9.46565 8.65187V8.53122H9.58561ZM10.275 7.83796L9.65675 8.45969H9.46565V7.65118H10.275V7.83796ZM10.4607 7.65118L10.3465 7.76601V7.65118H10.4607ZM11.1559 6.9521L10.5318 7.57965H10.3465V6.77114H11.1559V6.9521ZM11.3358 6.77114L11.2274 6.88016V6.77114H11.3358ZM12.0351 6.06792L11.4069 6.6996H11.2274V5.89193L12.0351 5.89193V6.06792ZM12.2101 5.89193L12.1066 5.99598V5.89193H12.2101ZM12.9151 5.1829L12.2812 5.82039H12.1066V5.01106H12.9151V5.1829ZM13.086 5.01106L12.9866 5.11096V5.01106H13.086ZM13.7968 4.26493C13.7546 4.32795 13.7057 4.38785 13.6502 4.44366L13.1571 4.93952H12.9866V4.13019L13.7968 4.13019V4.26493ZM5.20684 12.9348L5.06461 13.0778V12.9348H5.20684ZM4.99307 13.1443V12.9348H4.1854V13.4321C4.19464 13.4324 4.2039 13.4325 4.21317 13.4325C4.50021 13.4325 4.77661 13.3296 4.99307 13.1443ZM4.11386 13.4284V12.9348L3.30453 12.9348V13.0203L3.36273 13.0788C3.56438 13.2816 3.831 13.4049 4.11386 13.4284ZM3.23299 12.9483V12.9348H3.2195L3.23299 12.9483ZM3.14836 12.8632H3.23299V12.0539H2.42449V12.1353L3.14836 12.8632ZM2.35295 12.0633V12.0539H2.34358L2.35295 12.0633ZM2.27244 11.9823H2.35295V11.1747H1.54361V11.2494L2.27244 11.9823ZM1.47208 11.1775V11.1747H1.46931L1.47208 11.1775ZM1.39818 11.1031H1.47208V10.2905H0.663572V10.3644L1.39818 11.1031ZM0.592034 10.2924V10.2905H0.590086L0.592034 10.2924ZM0.51895 10.2189H0.592034V9.4121H0.0931399C0.120053 9.67594 0.234229 9.93261 0.435801 10.1353L0.51895 10.2189ZM0.0879869 9.34056H0.592034L0.592034 8.53122H0.357057C0.165664 8.76513 0.0759189 9.05456 0.0879869 9.34056ZM0.420481 8.45969H0.592034V8.31145C0.538969 8.3492 0.488282 8.39179 0.440582 8.43922C0.433784 8.44598 0.427084 8.45281 0.420481 8.45969ZM0.663572 8.26432V8.45969H1.47208V8.10474C1.19668 8.06178 0.909136 8.11492 0.663572 8.26432ZM1.54361 8.11813V8.45969L2.15227 8.45969L2.13668 8.44401C1.96798 8.27436 1.76115 8.16571 1.54361 8.11813ZM2.2234 8.53122H1.54361V9.34056L2.35295 9.34056V8.6615L2.2234 8.53122ZM2.42449 8.73344V9.34056H3.02819L2.42449 8.73344ZM3.09932 9.4121H2.42449V10.2189H3.23299V9.54652L3.09932 9.4121ZM3.30453 9.61846V10.2189H3.90163L3.30453 9.61846ZM3.97276 10.2905L3.30453 10.2905V11.1031H4.11386V10.4324L3.97276 10.2905ZM4.1854 10.5043V11.1031H4.99307V10.2905H4.45358L4.21317 10.5322L4.1854 10.5043ZM4.52471 10.2189H4.99307V9.74793L4.52471 10.2189ZM5.06461 9.67599V10.2189H5.87561V9.4121H5.32702L5.06461 9.67599ZM5.39815 9.34056H5.87561V8.8604L5.39815 9.34056ZM5.94715 8.78846V9.34056H6.75482V8.53122H6.20294L5.94715 8.78846ZM6.27407 8.45969H6.75482V7.97622L6.27407 8.45969ZM6.82636 7.90428V8.45969L7.63486 8.45969V7.65118H7.07803L6.82636 7.90428ZM7.14916 7.57965L7.63486 7.57965V7.0912L7.14916 7.57965ZM7.7064 7.01926V7.57965H8.51407V6.77114L7.95312 6.77114L7.7064 7.01926ZM8.02426 6.6996H8.51407V6.20702L8.02426 6.6996ZM8.58561 6.13508V6.6996H9.39411V5.89193H8.82739L8.58561 6.13508ZM8.89852 5.82039H9.39411V5.322L8.89852 5.82039ZM9.46565 5.25006V5.82039L10.275 5.82039V5.01106H9.70331L9.46565 5.25006ZM9.77444 4.93952L10.275 4.93952L10.275 4.43615L9.77444 4.93952ZM10.3465 4.36421V4.93952H11.1559L11.1559 4.13019L10.5792 4.13019L10.3465 4.36421ZM2.42449 11.9823H3.23299V11.1747H2.42449V11.9823ZM3.30453 12.8632V12.0539L4.11386 12.0539V12.8632H3.30453ZM3.30453 11.9823H4.11386V11.1747H3.30453V11.9823ZM4.1854 12.8632V12.0539H4.99307V12.8632H4.1854ZM4.1854 11.9823H4.99307V11.1747H4.1854V11.9823ZM5.06461 11.9823H5.87561V11.1747H5.06461V11.9823ZM11.2274 4.13019V4.93952H12.0351L12.0351 4.13019H11.2274ZM12.1066 4.13019V4.93952H12.9151L12.9151 4.13019L12.1066 4.13019ZM10.3465 5.01106V5.82039H11.1559V5.01106H10.3465ZM11.2274 5.01106V5.82039H12.0351V5.01106L11.2274 5.01106ZM9.46565 5.89193V6.6996L10.275 6.6996V5.89193H9.46565ZM10.3465 5.89193V6.6996H11.1559V5.89193H10.3465ZM9.46565 6.77114H10.275V7.57965H9.46565V6.77114ZM8.58561 6.77114H9.39411V7.57965H8.58561V6.77114ZM7.7064 7.65118V8.45969H8.51407V7.65118H7.7064ZM8.58561 7.65118V8.45969H9.39411V7.65118H8.58561ZM7.7064 8.53122H8.51407V9.34056H7.7064V8.53122ZM6.82636 8.53122H7.63486V9.34056L6.82636 9.34056V8.53122ZM0.663572 8.53122H1.47208V9.34056H0.663572L0.663572 8.53122ZM6.75482 11.1031V10.2905H5.94715V11.1031H6.75482ZM5.87561 11.1031V10.2905H5.06461V11.1031H5.87561ZM3.23299 11.1031V10.2905H2.42449V11.1031H3.23299ZM2.35295 11.1031V10.2905H1.54361V11.1031H2.35295ZM1.47208 10.2189H0.663572V9.4121H1.47208V10.2189ZM2.35295 10.2189L1.54361 10.2189V9.4121H2.35295V10.2189ZM6.75482 10.2189H5.94715V9.4121H6.75482V10.2189ZM7.63486 10.2189L6.82636 10.2189V9.4121H7.63486V10.2189Z" fill="url(#paint1_linear_402_5927)"/>
<path fill-rule="evenodd" clip-rule="evenodd" d="M13.6464 0.348887C14.1161 0.81593 14.1182 1.5753 13.6512 2.04498L5.06458 10.6801C4.83948 10.9065 4.5334 11.0338 4.21415 11.0338C3.89489 11.0338 3.58882 10.9065 3.36371 10.6801L0.436777 7.73664C-0.0302659 7.26695 -0.028125 6.50759 0.441559 6.04054C0.911243 5.5735 1.67061 5.57564 2.13765 6.04532L4.21415 8.13356L11.9503 0.353668C12.4173 -0.116016 13.1767 -0.118157 13.6464 0.348887Z" fill="#289ED0"/>
<defs>
<linearGradient id="paint0_linear_402_5927" x1="8.87067" y1="7.85349" x2="12.4476" y2="3.91891" gradientUnits="userSpaceOnUse">
<stop stop-color="#A0D7EF"/>
<stop offset="1" stop-color="#A0D7EF" stop-opacity="0"/>
</linearGradient>
<linearGradient id="paint1_linear_402_5927" x1="9.87081" y1="6.35002" x2="13.2795" y2="4.19767" gradientUnits="userSpaceOnUse">
<stop stop-color="#A0D7EF"/>
<stop offset="1" stop-color="#A0D7EF" stop-opacity="0"/>
</linearGradient>
</defs>
</svg>
