<svg width="65" height="54" viewBox="0 0 65 54" fill="none" xmlns="http://www.w3.org/2000/svg">
<path d="M33.3433 12.7405C33.2103 13.162 33.4667 13.5953 33.8966 13.7164L33.9751 13.7385L33.9783 13.7351C34.3825 13.8076 34.792 13.5814 34.9145 13.1907C36.0141 9.69945 39.4819 7.25351 43.3532 7.25351C43.7991 7.25351 44.1737 6.91003 44.1737 6.47089C44.1737 6.03174 43.799 5.68827 43.3532 5.68827C38.6143 5.68827 34.6252 8.67001 33.3433 12.7405ZM33.3433 12.7405L33.4702 12.7806M33.3433 12.7405C33.3433 12.7405 33.3433 12.7406 33.3433 12.7406L33.4702 12.7806M33.4702 12.7806C33.3617 13.1244 33.5689 13.4857 33.9327 13.5883L33.4702 12.7806Z" fill="#483EA8" stroke="#F9FFF9" stroke-width="0.266276"/>
<path d="M52.9762 38.2955H48.8522C48.4727 38.2955 48.1649 38.0047 48.1649 37.646C48.1649 37.2874 48.4727 36.9966 48.8522 36.9966H52.9762C58.6609 36.9966 63.2862 32.626 63.2862 27.2544C63.2862 21.8829 58.6609 17.5123 52.9762 17.5123H52.877C52.6777 17.5123 52.4882 17.4307 52.3576 17.2882C52.227 17.1458 52.1681 16.957 52.1966 16.7705C52.2579 16.366 52.2889 15.9596 52.2889 15.5639C52.2889 10.9086 48.2802 7.12067 43.3534 7.12067C41.4367 7.12067 39.6089 7.68664 38.0673 8.7578C37.7285 8.993 37.2474 8.88862 37.0515 8.53651C32.6854 0.680674 21.2818 -0.374285 15.3696 6.45961C12.879 9.33862 11.9004 13.0838 12.6846 16.7339C12.771 17.137 12.4445 17.5128 12.011 17.5128H11.7356C6.05085 17.5128 1.42552 21.8834 1.42552 27.2549C1.42552 32.6265 6.05085 36.9971 11.7356 36.9971H15.8595C16.239 36.9971 16.5469 37.2879 16.5469 37.6465C16.5469 38.0051 16.2391 38.296 15.8595 38.296H11.7356C5.29272 38.296 0.0507812 33.3428 0.0507812 27.2549C0.0507812 21.3377 5.00251 16.4926 11.196 16.2254C10.6142 12.4384 11.7267 8.6186 14.3052 5.63756C20.6351 -1.67969 32.7658 -0.85952 37.8937 7.29975C39.5296 6.33063 41.4016 5.82224 43.3532 5.82224C49.3222 5.82224 54.0521 10.6228 53.6382 16.2314C59.7747 16.5566 64.6607 21.3762 64.6607 27.2544C64.6607 33.3428 59.4187 38.2955 52.9759 38.2955L52.9762 38.2955Z" fill="#483EA8"/>
<path d="M14.9469 37.2792C14.9469 46.3129 22.7224 53.6494 32.2637 53.6494C41.8052 53.6494 49.5805 46.3128 49.5805 37.2792C49.5805 28.2455 41.8052 20.909 32.2637 20.909C22.7223 20.909 14.9469 28.2456 14.9469 37.2792ZM16.5882 37.2792C16.5882 29.1231 23.6132 22.4745 32.2637 22.4745C40.9141 22.4745 47.9392 29.123 47.9392 37.2792C47.9392 45.4352 40.9141 52.0839 32.2637 52.0839C23.6133 52.0839 16.5882 45.4353 16.5882 37.2792Z" fill="#483EA8" stroke="#F9FFF9" stroke-width="0.266276"/>
<path d="M31.9411 43.8156C31.9411 44.1587 32.2333 44.4243 32.5774 44.4243C32.9215 44.4243 33.2138 44.1591 33.2138 43.8156V31.4528C33.2138 31.1097 32.9216 30.8442 32.5774 30.8442C32.2333 30.8442 31.9411 31.1097 31.9411 31.4528V43.8156Z" fill="#483EA8" stroke="#483EA8" stroke-width="0.266276"/>
<path d="M36.1562 35.6907C36.2807 35.8084 36.4432 35.8663 36.6034 35.8664H36.6034C36.7634 35.8663 36.9259 35.809 37.0507 35.6907C37.3029 35.4524 37.3029 35.063 37.0507 34.8247L33.025 31.0208C32.7772 30.7866 32.3781 30.7865 32.1304 31.0209C32.1304 31.0209 32.1304 31.0209 32.1304 31.0209L28.1048 34.8247C27.8526 35.063 27.8526 35.4524 28.1048 35.6907C28.3527 35.925 28.7519 35.9251 28.9995 35.6906L32.5778 32.3095L36.1562 35.6907Z" fill="#483EA8" stroke="#483EA8" stroke-width="0.266276"/>
</svg>
