<svg width="22" height="17" viewBox="0 0 22 17" fill="none" xmlns="http://www.w3.org/2000/svg">
<path d="M17.8087 9.71348H9.02039C8.23897 9.71348 7.51951 9.97629 6.93894 10.4139V6.24439C6.93894 5.92975 6.72708 5.65447 6.42312 5.57385C6.11999 5.49347 5.79933 5.62712 5.64257 5.9002L0.0920325 15.6136C-0.171489 16.076 0.162308 16.6516 0.694587 16.6516H3.46985C4.60531 16.6516 5.6119 16.101 6.24512 15.2553C6.87835 16.101 7.88493 16.6516 9.02039 16.6516H17.8087C19.7217 16.6516 21.2778 15.0955 21.2778 13.1826C21.2779 11.2696 19.7217 9.71348 17.8087 9.71348ZM9.02039 15.264C7.87263 15.264 6.93894 14.3303 6.93894 13.1826C6.93894 12.0348 7.87263 11.1011 9.02039 11.1011C10.1681 11.1011 11.1018 12.0348 11.1018 13.1826C11.1018 14.3303 10.1681 15.264 9.02039 15.264ZM17.8087 15.264C16.661 15.264 15.7273 14.3303 15.7273 13.1826C15.7273 12.0348 16.661 11.1011 17.8087 11.1011C18.9565 11.1011 19.8902 12.0348 19.8902 13.1826C19.8902 14.3303 18.9565 15.264 17.8087 15.264Z" fill="#1B1F41"/>
<path d="M17.8093 0H13.6464C13.3279 0 13.0506 0.216602 12.9734 0.525547L11.7171 5.55058H11.1024V4.85676C11.1024 4.47351 10.7916 4.16294 10.4086 4.16294C10.0256 4.16294 9.71478 4.47351 9.71478 4.85676V5.92606C8.88665 6.40685 8.32715 7.30126 8.32715 8.32584C8.85251 8.32584 8.78479 8.32584 9.02097 8.32584H17.8093C18.5548 8.32584 19.1798 8.32584 19.8908 8.32584V2.08145C19.8908 0.933692 18.9571 0 17.8093 0ZM17.1155 4.85676C17.1155 5.23993 16.8048 5.55058 16.4217 5.55058H13.1473L14.188 1.38768H16.4217C16.8048 1.38768 17.1155 1.69832 17.1155 2.08149V4.85676Z" fill="#1B1F41"/>
</svg>
